<svg
        width="73"
        height="100"
        viewBox="0 0 73 100"
        fill="none"
        xmlns="http://www.w3.org/2000/svg"
      >
        <path
          fill-rule="evenodd"
          clip-rule="evenodd"
          d="M27.5171 37.0088L27.8742 29.7062C27.3278 32.1188 27.2311 34.5578 27.5171 37.0088ZM22.5001 52.2186C22.9565 49.4485 23.3138 46.6893 24.0705 44.0029C22.7379 46.5945 22.5314 49.4041 22.5001 52.2186ZM32.8872 49.1844C33.88 49.6116 34.0219 48.9154 34.1817 48.2888C34.723 46.1705 33.6082 44.504 32.527 42.921C31.7391 41.7671 30.7746 40.667 29.4166 40.0847C28.8989 39.8625 28.4279 39.8296 28.5203 40.657C28.7729 42.9162 29.3209 45.0803 30.587 47.0028C31.1902 47.9186 31.9465 48.6944 32.8872 49.1844ZM25.247 44.5027C24.4921 46.0954 24.2934 47.8415 24.0433 49.5632C22.9634 57.0025 24.195 64.1566 26.635 71.1898C28.2652 75.8879 30.3272 80.3844 32.5521 84.817C32.7547 85.2216 32.9759 85.6227 32.9499 86.0943C32.9203 86.6242 32.7478 86.9356 32.2216 86.4623C32.0917 86.3462 32.0372 86.0765 31.8294 86.328C31.1121 87.1951 30.4998 86.6256 29.9145 86.1763C28.8156 85.3334 28.1843 84.1023 27.4638 82.9741C25.4447 79.8137 23.5433 76.5737 22.0833 73.1124C20.7283 69.899 19.8539 66.5252 19.0746 63.129C18.5785 60.9671 18.1039 58.7612 18.3817 56.5735C18.5662 55.1201 18.206 53.735 18.3712 52.3109C18.6882 49.5808 19.033 46.8648 19.9492 44.2544C20.7035 42.1059 21.9422 40.2945 23.7445 38.9006C24.3389 38.4413 24.5978 37.885 24.5994 37.1692C24.6046 35.2401 24.6717 33.3054 24.7641 31.3874C24.9138 28.2669 25.558 25.1846 26.3167 22.147C27.5269 17.3022 29.2062 12.6442 32.0029 8.45573C33.6466 5.99396 35.4271 3.67367 38.2954 2.50236C39.0505 2.19393 39.8043 2.04548 40.5895 2.4001C40.928 2.55254 41.1426 2.76837 41.147 3.16341C41.1516 3.6303 40.8559 3.54854 40.523 3.62486C38.2393 4.14754 37.1798 6.05022 36.0016 7.78711C32.7544 12.5735 31.0896 17.985 29.8449 23.5557C28.8925 27.8187 28.3651 32.1336 28.3433 36.5052C28.3415 36.8524 28.1615 37.2576 28.8245 37.2427C31.1345 37.191 33.0738 38.1577 34.7266 39.6642C37.2781 41.9894 38.9795 44.7599 38.5661 48.3836C38.344 50.3308 37.2974 51.2569 35.3916 51.6631C30.5363 52.699 27.0611 49.5855 25.8559 45.6102C25.7484 45.254 25.6408 44.8982 25.5334 44.5429C25.4377 44.5293 25.3423 44.5162 25.247 44.5027Z"
          fill="url(#paint0_linear_12_757)"
        />
        <path
          fill-rule="evenodd"
          clip-rule="evenodd"
          d="M37.4197 88.8114C37.2167 91.114 37.3281 93.3926 37.9007 95.6347C37.7404 93.3604 37.5798 91.086 37.4197 88.8114ZM27.1161 89.4742C29.2589 90.4185 31.2032 91.7119 33.1927 92.9263C33.4901 93.1078 33.7429 93.478 34.1862 93.1937C34.612 92.9205 34.4623 92.5114 34.399 92.1807C34.0554 90.3779 34.2602 88.5751 34.261 86.7667C34.2611 85.6243 34.0453 84.4726 34.0812 83.2989C34.1371 81.4918 34.0576 79.6783 33.9886 77.8696C33.9537 76.953 34.3496 76.0598 33.9525 75.1106C33.5633 74.1794 34.0578 73.55 35.4953 73.1984C36.2289 73.0187 37.049 73.1605 37.2916 74.0842C37.4909 74.8439 37.635 75.6323 37.6822 76.415C37.9942 81.5953 38.2644 86.778 38.5704 91.9585C38.639 93.1213 38.7861 94.2808 38.9109 95.4401C39.1379 97.5478 38.5843 98.1707 36.4642 98.368C34.8184 98.5211 33.462 98.0256 32.2225 96.95C29.8362 94.8798 27.3908 92.8774 24.6449 91.2863C24.0946 90.9676 23.5 90.7265 22.9365 90.4288C22.2837 90.0847 22.2424 89.6945 22.8834 89.2773C24.3036 88.3519 24.6469 88.3664 27.1161 89.4742Z"
          fill="url(#paint1_linear_12_757)"
        />
        <defs>
          <linearGradient
            id="paint0_linear_12_757"
            x1="49.2808"
            y1="6.00154"
            x2="20.8517"
            y2="74.5837"
            gradientUnits="userSpaceOnUse"
          >
            <stop stop-color="#C5ADC5" />
            <stop offset="1" stop-color="#EADEEA" />
          </linearGradient>
          <linearGradient
            id="paint1_linear_12_757"
            x1="38.661"
            y1="74.0909"
            x2="30.3342"
            y2="94.1783"
            gradientUnits="userSpaceOnUse"
          >
            <stop stop-color="#C5ADC5" />
            <stop offset="1" stop-color="#EADEEA" />
          </linearGradient>
        </defs>
      </svg>